<svg width="324" height="61" fill="none" xmlns="http://www.w3.org/2000/svg"><rect x=".5" y=".5" width="323" height="60" rx="4.5" stroke="#7B61FF" stroke-dasharray="10 5"/><path d="M79.75 32c.3 0 .5-.2.5-.5s-.2-.5-.5-.5-.5.2-.5.5.2.5.5.5Z" fill="#000"/><path d="M89 24h-2v-2h-1v2h-8v-2h-1v2h-2c-.6 0-1 .4-1 1v11c0 .5.4 1 1 1h14c.5 0 1-.5 1-1V25c0-.6-.5-1-1-1Zm0 12H75v-7h14v7Zm-14-8v-3h2v2h1v-2h8v2h1v-2h2v3H75Z" fill="#000"/><path d="M82 32c.3 0 .5-.2.5-.5s-.2-.5-.5-.5-.5.2-.5.5.2.5.5.5ZM84.25 32c.3 0 .5-.2.5-.5s-.2-.5-.5-.5-.5.2-.5.5.2.5.5.5ZM79.75 33c-.3 0-.5.2-.5.5s.2.5.5.5.5-.2.5-.5-.2-.5-.5-.5ZM77.5 32c.3 0 .5-.2.5-.5s-.2-.5-.5-.5-.5.2-.5.5.2.5.5.5ZM77.5 33c-.3 0-.5.2-.5.5s.2.5.5.5.5-.2.5-.5-.2-.5-.5-.5ZM82 33c-.3 0-.5.2-.5.5s.2.5.5.5.5-.2.5-.5-.2-.5-.5-.5ZM84.25 33c-.3 0-.5.2-.5.5s.2.5.5.5.5-.2.5-.5-.2-.5-.5-.5ZM86.5 32c.3 0 .5-.2.5-.5s-.2-.5-.5-.5-.5.2-.5.5.2.5.5.5ZM86.5 33c-.3 0-.5.2-.5.5s.2.5.5.5.5-.2.5-.5-.2-.5-.5-.5ZM167.3 24.3h-14.7c-.3 0-.6.2-.6.5s.3.6.6.6h1.7v12c0 .3.3.6.6.6h10.2c.3 0 .6-.3.6-.6v-12h1.7c.3 0 .6-.3.6-.6s-.4-.5-.7-.5Zm-2.8 12.5h-9.1V25.4h9.1v11.4ZM158.2 23.2h3.4c.3 0 .6-.3.6-.6s-.2-.6-.5-.6h-3.5c-.3 0-.5.3-.5.6s.2.6.5.6Z" fill="#000"/><path d="M158.2 34c.3 0 .6-.3.6-.6v-5.7c0-.3-.3-.6-.6-.6s-.6.3-.6.6v5.7c.1.3.3.6.6.6ZM161.7 34c.3 0 .6-.3.6-.6v-5.7c0-.3-.3-.6-.6-.6s-.6.4-.6.6v5.7c0 .3.2.6.6.6Z" fill="#000"/><path fill-rule="evenodd" clip-rule="evenodd" d="M206.22 27.345a.75.75 0 0 1 1.06 0l4.72 4.72 4.72-4.72a.75.75 0 1 1 1.06 1.06l-5.25 5.25a.75.75 0 0 1-1.06 0l-5.25-5.25a.75.75 0 0 1 0-1.06Z" fill="#000"/><path d="M133.9 39c-.3 0-.6-.1-.8-.4-5.4-6.1-6.7-7.5-7-7.9-.7-.9-1.1-2.1-1.1-3.3 0-3 2.4-5.4 5.5-5.4 1.3 0 2.5.5 3.5 1.3 1-.8 2.3-1.3 3.5-1.3 3 0 5.5 2.4 5.5 5.4 0 1.3-.5 2.5-1.3 3.4l-7 7.9c-.2.2-.4.3-.8.3Zm-6-9.5c.3.4 3.5 4 6.1 6.9l6.2-7c.5-.5.7-1.2.7-2 0-1.8-1.5-3.3-3.3-3.3-1 0-2 .5-2.7 1.3-.3.3-.6.4-.9.4-.3 0-.6-.2-.8-.4-.7-.8-1.7-1.3-2.7-1.3-1.8 0-3.3 1.5-3.3 3.3-.1.9.3 1.6.7 2.1-.1 0-.1 0 0 0ZM238 23l-6 5.8V35h12v-6.2l-6-5.8Zm5 11h-10v-4.8l5-4.8 5 4.8V34Z" fill="#000"/><path d="M236 33h1v-2.5h2V33h1v-3.5h-4V33Z" fill="#000"/><path fill-rule="evenodd" clip-rule="evenodd" d="M289 24h2v2h-2v-2Zm2 12h-2v-9h2v9Z" fill="#000"/><path d="M49 29v2h14v-2H49ZM193 24.292 191.708 23 186 28.708 180.292 23 179 24.292 184.708 30 179 35.708 180.292 37 186 31.292 191.708 37 193 35.708 187.292 30 193 24.292ZM37 29h-6v-6h-2v6h-6v2h6v6h2v-6h6v-2ZM117.5 38.008l-3.7-3.68c1-1.292 1.7-2.983 1.7-4.872 0-4.376-3.6-7.956-8-7.956s-8 3.68-8 8.055c0 4.376 3.6 7.956 8 7.956 1.8 0 3.5-.597 4.9-1.69l3.7 3.679 1.4-1.492Zm-10-2.486c-3.3 0-6-2.685-6-5.967 0-3.282 2.7-5.967 6-5.967s6 2.685 6 5.967c0 3.282-2.7 5.967-6 5.967ZM264 22l2.1 6.5h6.9l-5.6 4 2.2 6.5-5.6-4-5.6 4 2.2-6.5-5.6-4h6.9L264 22Z" fill="#000"/></svg>